<?xml version="1.0" encoding="UTF-8" standalone="no"?>
<svg
   xmlns:dc="http://purl.org/dc/elements/1.1/"
   xmlns:cc="http://creativecommons.org/ns#"
   xmlns:rdf="http://www.w3.org/1999/02/22-rdf-syntax-ns#"
   xmlns:svg="http://www.w3.org/2000/svg"
   xmlns="http://www.w3.org/2000/svg"
   xmlns:sodipodi="http://sodipodi.sourceforge.net/DTD/sodipodi-0.dtd"
   xmlns:inkscape="http://www.inkscape.org/namespaces/inkscape"
   width="16"
   height="16"
   version="1.1"
   id="svg4"
   sodipodi:docname="DefaultIcon.svg"
   inkscape:version="0.92.2 2405546, 2018-03-11">
  <metadata
     id="metadata10">
    <rdf:RDF>
      <cc:Work
         rdf:about="">
        <dc:format>image/svg+xml</dc:format>
        <dc:type
           rdf:resource="http://purl.org/dc/dcmitype/StillImage" />
        <dc:title></dc:title>
      </cc:Work>
    </rdf:RDF>
  </metadata>
  <defs
     id="defs8" />
  <sodipodi:namedview
     pagecolor="#868686"
     bordercolor="#666666"
     borderopacity="1"
     objecttolerance="10"
     gridtolerance="10"
     guidetolerance="10"
     inkscape:pageopacity="0"
     inkscape:pageshadow="2"
     inkscape:window-width="1920"
     inkscape:window-height="1147"
     id="namedview6"
     showgrid="false"
     inkscape:zoom="29.5"
     inkscape:cx="4.3887314"
     inkscape:cy="12.506657"
     inkscape:window-x="0"
     inkscape:window-y="0"
     inkscape:window-maximized="1"
     inkscape:current-layer="svg4" />
  <path
     style="fill:#ffffff;stroke-width:1.4;stroke-miterlimit:4;stroke-dasharray:none;fill-opacity:1"
     d="M 8.5593221,11.915254 H 7.440678 V 10.79661 H 8.5593221 Z M 9.7171188,7.5805085 9.2137289,8.0950847 C 8.811017,8.5033898 8.5593221,8.838983 8.5593221,9.677966 H 7.440678 V 9.398305 c 0,-0.615254 0.2516949,-1.1745763 0.6544068,-1.5828813 L 8.7886442,7.110678 c 0.2069491,-0.201356 0.33,-0.4810171 0.33,-0.7886441 0,-0.6152542 -0.5033899,-1.1186441 -1.1186441,-1.1186441 -0.6152542,0 -1.1186441,0.5033899 -1.1186441,1.1186441 H 5.7627119 c 0,-1.2361018 1.0011864,-2.2372882 2.2372882,-2.2372882 1.2361016,0 2.2372879,1.0011864 2.2372879,2.2372882 0,0.4922034 -0.201356,0.9396611 -0.5201692,1.2584746 z"
     id="path2"
     inkscape:connector-curvature="0" />
  <rect
     style="opacity:1;fill:none;fill-opacity:1;fill-rule:nonzero;stroke:#ffffff;stroke-width:1.4;stroke-linecap:square;stroke-linejoin:miter;stroke-miterlimit:4;stroke-dasharray:none;stroke-dashoffset:0;stroke-opacity:1;paint-order:markers fill stroke"
     id="rect817"
     width="10.714249"
     height="12.470995"
     x="2.6428757"
     y="1.7645024" />
</svg>
